erDiagram
    ROL {}

    USUARIO {}

    USUARIO_ROL {}

    CATEGORIA {}

    ETIQUETA {}

    PREFERENCIA {}

    CONTENIDO {}

    CONTENIDO_ETIQUETA {}

    HISTORIAL {}

    BUSQUEDA {}

    RESULTADO_BUSQUEDA {}

    INTERACCION {}

    VISUALIZACION {}

    REACCION {}

    COMPARTICION {}

    DENUNCIA {}

    GESTION {}

    VIDEO {}

    FOTO {}

    ARTICULO {}

    PUBLICACION {}

    CURSO {}

    DOCUMENTO {}

    CONTENIDO_EMBEDDING {}

    ROL ||--o{ USUARIO_ROL : asigna
    USUARIO ||--o{ USUARIO_ROL : posee
    USUARIO ||--o{ PREFERENCIA : declara
    CATEGORIA ||--o{ PREFERENCIA : selecciona
    USUARIO ||--o{ CONTENIDO : crea
    CATEGORIA ||--o{ CONTENIDO : clasifica
    USUARIO ||--o{ HISTORIAL : registra
    CONTENIDO ||--o{ HISTORIAL : aparece_en
    USUARIO ||--o{ BUSQUEDA : realiza
    BUSQUEDA ||--o{ RESULTADO_BUSQUEDA : produce
    CONTENIDO ||--o{ RESULTADO_BUSQUEDA : aparece_en
    USUARIO ||--o{ INTERACCION : realiza
    CONTENIDO ||--o{ INTERACCION : recibe
    INTERACCION ||--o| VISUALIZACION : especializa
    INTERACCION ||--o| REACCION : especializa
    INTERACCION ||--o| COMPARTICION : especializa
    INTERACCION ||--o| DENUNCIA : especializa
    INTERACCION ||--o| GESTION : especializa
    CONTENIDO ||--o{ CONTENIDO_ETIQUETA : posee
    ETIQUETA ||--o{ CONTENIDO_ETIQUETA : asigna
    CONTENIDO ||--o| VIDEO : especializa
    CONTENIDO ||--o| FOTO : especializa
    CONTENIDO ||--o| ARTICULO : especializa
    CONTENIDO ||--o| PUBLICACION : especializa
    CONTENIDO ||--o| CURSO : especializa
    CONTENIDO ||--o| DOCUMENTO : especializa
    CONTENIDO ||--o{ CONTENIDO_EMBEDDING : vectoriza